<svg version="1.1" id="Layer_1" xmlns="http://www.w3.org/2000/svg" xmlns:xlink="http://www.w3.org/1999/xlink" x="0px" y="0px"
	 width="100%" viewBox="0 0 1024 1024" enable-background="new 0 0 1024 1024" xml:space="preserve">
<path fill="#000000" opacity="1.000000" stroke="none" 
	d="
M564.000000,707.311768 
	C523.837036,707.318909 484.174072,707.309387 444.511108,707.343018 
	C430.623596,707.354797 420.848206,700.879700 415.889679,688.121521 
	C413.901215,683.005249 412.817017,677.303589 412.876068,671.596191 
	C412.996735,659.935181 412.914368,648.275330 413.543884,636.617859 
	C413.911285,629.814880 413.755188,622.979553 413.708832,616.159668 
	C413.679321,611.825989 412.292114,608.240967 408.579102,605.399719 
	C383.761200,586.409180 365.300781,562.291809 351.993317,534.158508 
	C346.396088,522.325439 341.689087,510.027588 339.142578,497.229706 
	C335.550568,479.177368 333.123688,460.804291 334.982391,442.371124 
	C338.091370,411.538635 347.255249,382.711304 363.712799,356.090271 
	C373.649170,340.017731 385.320679,325.583405 399.453339,313.375549 
	C416.608429,298.556946 435.398743,286.187592 457.052521,278.326416 
	C469.064514,273.965607 481.250336,270.981903 493.709930,268.555267 
	C507.652344,265.839905 521.553101,265.397919 535.736023,266.354523 
	C544.495972,266.945404 553.244995,267.574646 561.853210,269.017303 
	C571.948792,270.709229 581.681946,274.044250 591.301880,277.596039 
	C626.519165,290.598663 654.953064,312.729370 677.346313,342.557190 
	C696.361084,367.884827 708.224304,396.494965 713.122864,427.779266 
	C719.395447,467.839325 713.228516,506.059113 694.343201,541.990967 
	C681.466431,566.490967 664.104187,587.415344 642.040039,604.232056 
	C638.455994,606.963684 637.062500,609.898376 637.089355,614.290527 
	C637.204468,633.120850 637.154724,651.953735 636.956665,670.783447 
	C636.897522,676.404968 636.873657,682.092651 634.895996,687.533875 
	C630.630432,699.269958 620.054688,707.121155 607.494446,707.283203 
	C593.165222,707.468018 578.831665,707.317139 564.000000,707.311768 
M425.125336,341.636505 
	C387.912964,375.942444 370.401184,418.060699 374.206146,468.857025 
	C375.698059,488.774261 381.086884,507.499176 390.316467,525.047363 
	C403.229095,549.598145 422.288513,568.722473 444.835236,584.501892 
	C448.790192,587.269775 450.461304,590.447388 450.419861,595.320923 
	C450.227112,617.985352 450.336487,640.652405 450.355103,663.318481 
	C450.359955,669.259094 451.618195,670.586975 457.667755,670.732849 
	C462.498016,670.849426 467.334167,670.803955 472.166382,670.735718 
	C477.763397,670.656677 478.723694,669.669617 478.744598,663.863342 
	C478.790161,651.197144 478.346466,638.512268 478.897095,625.869568 
	C479.428833,613.661194 477.634430,601.679504 476.485107,589.644592 
	C476.067017,585.266479 475.318420,580.742737 474.214233,576.462952 
	C471.414764,565.611938 468.719879,554.719910 464.793182,544.170776 
	C461.907532,536.418640 459.579529,529.159241 451.434692,524.258301 
	C440.677338,517.785339 437.752075,506.266754 440.369202,494.354797 
	C444.428558,475.878784 462.951569,469.632172 479.024872,475.658478 
	C491.548798,480.354065 499.178223,495.954834 494.878052,507.930267 
	C492.451202,514.688599 494.015839,520.468994 496.622253,526.616760 
	C505.059570,546.517700 509.964600,567.423767 512.165161,588.823608 
	C514.431824,610.866882 514.242676,633.061157 514.183167,655.217468 
	C514.137451,672.244080 511.202454,670.536987 530.008850,670.716553 
	C534.818970,670.762512 537.307556,668.739014 536.556274,664.092468 
	C534.798584,653.221863 537.125427,642.488281 536.820923,631.679993 
	C536.175537,608.766663 537.068054,586.018616 542.426270,563.492432 
	C545.488831,550.617065 548.817200,537.919495 553.860107,525.709412 
	C556.198059,520.048706 557.038940,514.883362 555.370667,508.489868 
	C552.946838,499.200317 554.959106,489.839935 561.910583,482.544006 
	C569.213013,474.879700 577.711975,471.452515 588.799561,474.301880 
	C596.929871,476.391266 603.334656,479.876953 607.307739,487.199554 
	C615.098022,501.557587 610.679626,516.793335 596.206360,526.007080 
	C594.246216,527.254883 592.150757,528.205994 591.142700,530.588013 
	C582.086975,551.988342 575.249207,573.985718 573.255066,597.267212 
	C571.346008,619.555420 572.750916,641.902161 572.179565,664.213379 
	C572.053589,669.134460 574.365845,670.696167 578.762634,670.770691 
	C583.071045,670.843628 587.294617,669.934448 591.695007,670.562500 
	C598.885742,671.588806 601.687073,668.617432 600.510803,661.424866 
	C599.774231,656.921082 599.747803,652.481140 599.992981,647.989380 
	C600.410400,640.338989 600.856628,632.704773 600.495911,625.021179 
	C600.050781,615.539673 599.815491,606.036987 599.904541,596.547302 
	C599.942871,592.468018 600.238586,588.019775 604.150085,585.309082 
	C610.182434,581.128662 615.743591,576.369019 621.446167,571.772766 
	C653.420166,546.001831 671.390564,512.205078 676.381409,471.957214 
	C678.934143,451.371552 677.310303,430.428528 670.230408,410.545013 
	C660.413330,382.974396 645.541809,358.595276 622.680969,339.763580 
	C585.278687,308.953217 542.804260,297.077972 494.940887,306.483368 
	C468.705994,311.638641 445.602722,323.314697 425.125336,341.636505 
z"/>
<path fill="#000000" opacity="1.000000" stroke="none" 
	d="
M533.000000,767.210510 
	C503.028351,767.191711 473.556641,767.192749 444.085052,767.143494 
	C432.431702,767.124023 426.981171,762.862061 424.149567,751.751526 
	C422.201660,744.108398 427.479492,734.786194 435.018799,732.925232 
	C440.646667,731.536133 446.306458,730.659607 452.213470,730.678101 
	C502.331360,730.834351 552.450073,730.816650 602.568115,730.693665 
	C607.707092,730.681030 612.475281,731.950134 617.032654,733.751892 
	C623.359558,736.253113 627.070984,743.625549 626.260254,750.486694 
	C625.345154,758.231873 619.742493,764.755249 612.357483,766.301514 
	C609.612915,766.876099 606.745117,767.067688 603.932190,767.078552 
	C580.455017,767.169434 556.977417,767.177307 533.000000,767.210510 
z"/>
<path fill="#000000" opacity="1.000000" stroke="none" 
	d="
M535.629395,850.954102 
	C516.678894,854.545837 500.326385,849.807373 485.853577,837.982849 
	C484.694794,837.036011 483.346710,836.192261 482.508423,835.003235 
	C478.051605,828.681580 472.133911,824.760864 464.916748,821.806580 
	C456.179840,818.230164 452.848267,810.323730 452.840607,801.196106 
	C452.835205,794.777527 456.758270,790.843811 463.112427,790.833679 
	C504.737640,790.767639 546.363037,790.792786 587.988342,790.830750 
	C592.726685,790.835083 595.678894,792.938660 596.621277,797.978149 
	C598.612122,808.624939 593.748840,818.839417 583.509949,822.628967 
	C577.616394,824.810303 573.209900,828.218872 569.187988,832.823547 
	C560.411011,842.872192 548.942444,848.241638 535.629395,850.954102 
z"/>
<path fill="#000000" opacity="1.000000" stroke="none" 
	d="
M705.984741,248.508759 
	C730.654053,248.794495 741.268799,271.406830 734.559326,289.468231 
	C730.416138,300.621490 718.605530,308.866852 705.879700,309.260284 
	C693.671204,309.637726 682.327759,302.683777 677.544312,291.659668 
	C670.240601,274.827484 678.402161,254.867233 696.179199,249.341614 
	C699.110474,248.430496 702.426208,248.756332 705.984741,248.508759 
z"/>
<path fill="#000000" opacity="1.000000" stroke="none" 
	d="
M243.503296,463.052490 
	C246.701218,453.908539 251.832321,446.907532 261.019684,444.135529 
	C272.938263,440.539490 284.491028,441.306366 294.098083,450.092255 
	C303.357300,458.559967 305.300507,469.545410 302.230255,481.246887 
	C299.076813,493.265381 290.352722,499.901581 278.563110,502.228271 
	C262.257751,505.446228 249.098679,497.921661 243.639725,482.184906 
	C241.560394,476.190765 242.477631,469.704193 243.503296,463.052490 
z"/>
<path fill="#000000" opacity="1.000000" stroke="none" 
	d="
M373.138550,267.224060 
	C380.941437,291.116028 363.342560,312.343475 338.832062,309.134155 
	C325.925537,307.444214 315.136261,294.671478 314.623016,281.513855 
	C314.238953,271.667480 316.808014,263.593536 323.757904,256.291290 
	C336.019043,243.408554 362.347534,245.919601 371.496094,263.704315 
	C372.027954,264.738251 372.507294,265.799194 373.138550,267.224060 
z"/>
<path fill="#000000" opacity="1.000000" stroke="none" 
	d="
M793.389160,446.448608 
	C806.580872,453.492004 812.568237,472.614258 804.273010,487.140900 
	C796.717896,500.371460 779.166748,506.689758 764.383728,500.627777 
	C751.075134,495.170471 743.581116,478.865540 748.016357,464.651184 
	C750.413818,456.967468 753.935242,450.695923 760.891174,446.622162 
	C771.519897,440.397369 782.276184,440.733826 793.389160,446.448608 
z"/>
<path fill="#000000" opacity="1.000000" stroke="none" 
	d="
M494.835480,202.494659 
	C497.127625,193.839569 500.732666,186.630829 508.348511,181.895538 
	C520.514587,174.331024 532.283508,176.046738 543.839600,183.056686 
	C551.932617,187.965881 557.223267,201.642929 555.387695,212.142212 
	C553.144653,224.971786 544.520142,233.946289 532.532166,237.110138 
	C511.579346,242.639938 493.537262,225.407883 494.728210,206.931412 
	C494.813782,205.603928 494.777191,204.268570 494.835480,202.494659 
z"/>
<path fill="#000000" opacity="1.000000" stroke="none" 
	d="
M727.348755,613.637024 
	C739.713501,626.571045 739.919189,644.720581 728.079407,656.379028 
	C715.590393,668.676758 696.165100,669.217590 684.517334,657.336853 
	C672.516052,645.095581 672.684265,627.223999 683.488403,615.045105 
	C694.261230,602.901611 714.443604,600.854370 727.348755,613.637024 
z"/>
<path fill="#000000" opacity="1.000000" stroke="none" 
	d="
M332.835022,663.405884 
	C314.884064,655.551270 311.796417,639.688782 315.881500,625.158142 
	C320.824066,607.577271 341.038086,600.936401 357.299652,607.492371 
	C371.342010,613.153809 378.914001,631.930359 373.066345,646.110107 
	C366.440063,662.177979 348.792023,669.882629 332.835022,663.405884 
z"/>
</svg>